<svg width="64" viewBox="0 0 48 58" fill="none" xmlns="http://www.w3.org/2000/svg"><g clip-path="url(#a)" fill="#fff"><path d="M47.689 27.363c-.205-.852-.668-1.558-1.39-2.12-.72-.567-1.932-.871-3.632-.924h-14.61c-.828 0-1.609.08-2.356.231-.748.152-1.357.581-1.82 1.275-.463.693-.695 1.888-.695 3.585s.218 2.813.655 3.507c.437.693 1.006 1.122 1.7 1.274.696.152 1.483.231 2.357.231h8.27v9.41c-.826.363-1.74.654-2.745.885a23.731 23.731 0 0 1-3.09.502 32.225 32.225 0 0 1-3.21.151c-2.832 0-5.42-.72-7.768-2.159-2.343-1.44-4.189-3.38-5.525-5.824-1.344-2.437-2.038-5.203-2.085-8.287.053-3.031.735-5.705 2.052-8.023 1.31-2.318 3.13-4.127 5.445-5.441 2.323-1.308 4.95-1.968 7.881-1.968 1.343 0 2.64.145 3.904.423 1.264.284 2.383.607 3.362.964.98.363 1.7.72 2.163 1.082.98.568 1.74.991 2.283 1.275.543.284 1.046.43 1.51.43.773 0 1.554-.271 2.355-.813.8-.541 1.608-1.373 2.435-2.51.463-.719.82-1.386 1.078-2.007.258-.614.364-1.208.311-1.776 0-1.024-.397-1.902-1.197-2.622s-1.714-1.439-2.746-2.159c-1.284-.871-2.806-1.624-4.56-2.238a31.565 31.565 0 0 0-2.626-.8 9.949 9.949 0 0 1-9.403 6.696 9.896 9.896 0 0 1-5.254-1.499 8.433 8.433 0 0 1-7.663 4.887c0 4.068-3.308 7.37-7.384 7.37a7.41 7.41 0 0 1-3.99-1.163C.562 22.206-.007 25.422-.007 28.862c0 4.008.669 7.74 2.012 11.186 1.337 3.447 3.236 6.452 5.677 9.027a26.327 26.327 0 0 0 8.583 6.016c3.268 1.44 6.789 2.159 10.547 2.159 1.959 0 3.825-.132 5.605-.383a40.312 40.312 0 0 0 5.022-1.043c1.569-.436 2.978-.965 4.209-1.585 1.958-1.024 3.5-2.2 4.638-3.507 1.132-1.314 1.7-2.581 1.7-3.816V30.104c0-.978-.105-1.889-.31-2.74h.013zM14.485 7.401c.251-.983-.007-1.763-.583-2.41-1.435-1.618-3.983-1.492-5.545 0-2.818 2.688-4.142 7.27.12 7.198.833-.013 1.647-.456 2.05-1.189a4.622 4.622 0 0 1 2.383-2.04c.734-.27 1.39-.806 1.581-1.565l-.006.006zM25.337.25c-2.713.073-4.13 1.605-2.952 3.341.483.72 1.41.918 2.244.687.555-.152 1.144-.099 1.694.106a1.895 1.895 0 0 0 1.998-.43c1.568-1.584-.516-3.4-2.984-3.704z"/></g><defs><clipPath id="a"><path fill="#fff" transform="translate(0 .25)" d="M0 0h48v57H0z"/></clipPath></defs></svg>